name C:\Users\r0593348\3dpredictsim\Results\Batchsim_tmt_linear_v2\Pog_s1_tmt_aCst_d05_k250_ig24.mot
datacolumns 128
datarows 4
range 1.62047405 1.65288353
endheader
time	pelvis_tilt	pelvis_list	pelvis_rotation	pelvis_tx	pelvis_ty	pelvis_tz	hip_flexion_l	hip_adduction_l	hip_rotation_l	hip_flexion_r	hip_adduction_r	hip_rotation_r	knee_angle_l	knee_angle_r	ankle_angle_l	ankle_angle_r	subtalar_angle_l	subtalar_angle_r	tmt_angle_l	tmt_angle_r	mtp_angle_l	mtp_angle_r	lumbar_extension	lumbar_bending	lumbar_rotation	arm_flex_l	arm_add_l	arm_rot_l	arm_flex_r	arm_add_r	arm_rot_r	elbow_flex_l	elbow_flex_r	pro_sup_l	pro_sup_r	glut_med1_l/activation	glut_med2_l/activation	glut_med3_l/activation	glut_min1_l/activation	glut_min2_l/activation	glut_min3_l/activation	semimem_l/activation	semiten_l/activation	bifemlh_l/activation	bifemsh_l/activation	sar_l/activation	add_long_l/activation	add_brev_l/activation	add_mag1_l/activation	add_mag2_l/activation	add_mag3_l/activation	tfl_l/activation	pect_l/activation	grac_l/activation	glut_max1_l/activation	glut_max2_l/activation	glut_max3_l/activation	iliacus_l/activation	psoas_l/activation	quad_fem_l/activation	gem_l/activation	peri_l/activation	rect_fem_l/activation	vas_med_l/activation	vas_int_l/activation	vas_lat_l/activation	med_gas_l/activation	lat_gas_l/activation	soleus_l/activation	tib_post_l/activation	flex_dig_l/activation	flex_hal_l/activation	tib_ant_l/activation	per_brev_l/activation	per_long_l/activation	per_tert_l/activation	ext_dig_l/activation	ext_hal_l/activation	ercspn_l/activation	intobl_l/activation	extobl_l/activation	glut_med1_r/activation	glut_med2_r/activation	glut_med3_r/activation	glut_min1_r/activation	glut_min2_r/activation	glut_min3_r/activation	semimem_r/activation	semiten_r/activation	bifemlh_r/activation	bifemsh_r/activation	sar_r/activation	add_long_r/activation	add_brev_r/activation	add_mag1_r/activation	add_mag2_r/activation	add_mag3_r/activation	tfl_r/activation	pect_r/activation	grac_r/activation	glut_max1_r/activation	glut_max2_r/activation	glut_max3_r/activation	iliacus_r/activation	psoas_r/activation	quad_fem_r/activation	gem_r/activation	peri_r/activation	rect_fem_r/activation	vas_med_r/activation	vas_int_r/activation	vas_lat_r/activation	med_gas_r/activation	lat_gas_r/activation	soleus_r/activation	tib_post_r/activation	flex_dig_r/activation	flex_hal_r/activation	tib_ant_r/activation	per_brev_r/activation	per_long_r/activation	per_tert_r/activation	ext_dig_r/activation	ext_hal_r/activation	ercspn_r/activation	intobl_r/activation	extobl_r/activation	
          1.62047405	         -2.91224674	         -0.97988302	         -5.00689283	          2.02559256	          0.87038428	          0.00237085	         27.48450347	         -0.46298213	         -1.48482278	        -17.23435690	          1.28515332	          6.50331332	         -8.60160036	         -7.24785894	          6.48685351	         -8.91796770	          4.07324623	          9.54008690	          0.12972400	          4.22542139	         -0.09112372	         25.25985870	          0.57237298	          3.05342380	          1.65821518	         -9.44058389	        -13.46421691	         13.29634408	          3.87547525	        -13.47983135	         12.88804033	         16.92802279	         27.07837613	         86.51662706	         86.51662706	          0.12361184	          0.05001143	          0.05927315	          0.05000130	          0.05000218	          0.05002220	          0.05900264	          0.05900287	          0.05900279	          0.05000725	          0.05000620	          0.05000318	          0.05901293	          0.12647632	          0.13346633	          0.11548769	          0.05002030	          0.05002164	          0.05900164	          0.06962675	          0.11171470	          0.12189165	          0.05000073	          0.05000087	          0.16427787	          0.05001711	          0.06667053	          0.05000213	          0.05001868	          0.10595573	          0.05001096	          0.05900262	          0.05900259	          0.05900265	          0.05272901	          0.05002118	          0.05900013	          0.45873359	          0.27671747	          0.17108749	          0.18373620	          0.49984611	          0.24137226	          0.05000067	          0.13501402	          0.13190027	          0.29422616	          0.08819603	          0.07647188	          0.26770524	          0.15979204	          0.08877785	          0.05001004	          0.05000097	          0.05000077	          0.05000116	          0.07582474	          0.07298782	          0.05000257	          0.05000326	          0.05000910	          0.05000414	          0.22202385	          0.05002460	          0.05000393	          0.05001258	          0.05000881	          0.05000743	          0.30287898	          0.56433172	          0.05000108	          0.05000318	          0.06793254	          0.23561448	          0.08838757	          0.08470993	          0.09400073	          0.17623257	          0.24951101	          0.22061148	          0.19133782	          0.20079176	          0.24789470	          0.05000011	          0.09953371	          0.16098754	          0.05000076	          0.05000023	          0.05000072	          0.05000010	          0.05000018	          0.05000044	
          1.63127721	         -2.89143814	         -1.01976060	         -5.15024281	          2.04263648	          0.86920047	          0.00220765	         26.93610168	         -0.28160776	         -1.26557434	        -16.95079717	          1.15883943	          6.22897206	         -8.75503358	         -9.54579234	          5.83009067	         -9.57546431	          3.65410710	         10.60592778	          0.15301880	          3.84106122	         -0.07630982	         26.10688309	          0.79854458	          2.85622966	          1.70995729	        -10.63539926	        -13.46604382	         13.12733322	          3.61301058	        -13.51330681	         13.19965656	         16.99362378	         27.92175534	         86.51662706	         86.51662706	          0.10475143	          0.05000866	          0.05022998	          0.05900035	          0.05003190	          0.05000410	          0.05000018	          0.05000057	          0.05000033	          0.05000042	          0.05001326	          0.05586477	          0.05001262	          0.21579174	          0.19767889	          0.12847835	          0.05000214	          0.05001512	          0.05000184	          0.05900456	          0.09820676	          0.15445575	          0.05000530	          0.05000480	          0.30148167	          0.11495471	          0.16953544	          0.08216044	          0.28818978	          0.31048370	          0.23745973	          0.05000006	          0.05000013	          0.05000003	          0.05000086	          0.05001388	          0.05000236	          0.56724251	          0.28936399	          0.18181372	          0.45900256	          0.56545893	          0.29895996	          0.05000018	          0.11441358	          0.11177494	          0.24933340	          0.07473918	          0.06480411	          0.22685932	          0.13541121	          0.07523235	          0.05000675	          0.05000092	          0.05000111	          0.05000083	          0.06425637	          0.14331735	          0.18186865	          0.11812891	          0.05002060	          0.05000510	          0.18814772	          0.07228884	          0.05001575	          0.05001430	          0.05000754	          0.05000843	          0.25666579	          0.47822631	          0.05904866	          0.05900762	          0.05900265	          0.19966445	          0.13500772	          0.13501146	          0.09912042	          0.14934301	          0.21144070	          0.18695061	          0.16214378	          0.17015612	          0.21007154	          0.05000016	          0.08434731	          0.13642776	          0.05000082	          0.05000062	          0.05000084	          0.05000171	          0.08215812	          0.06198421	
          1.64208037	         -2.86440204	         -1.04479044	         -5.27104354	          2.05990462	          0.86782926	          0.00205409	         26.25598160	         -0.13346801	         -1.00620910	        -16.57642646	          1.02731574	          5.94485175	         -9.36887799	        -12.01415192	          5.16459359	        -10.13984539	          3.21153685	         11.63232868	         -0.03193148	          3.29082895	         -0.11933548	         26.52587679	          1.03761643	          2.63210831	          1.75062523	        -11.82847171	        -13.47875783	         13.02768084	          3.29100130	        -13.55331434	         13.46218453	         17.04404334	         28.76134688	         86.51662706	         86.51662706	          0.27805002	          0.18638897	          0.24735409	          0.05000182	          0.05000163	          0.23310243	          0.08193510	          0.05000192	          0.07826206	          0.05000050	          0.05000195	          0.06962684	          0.08596601	          0.18286733	          0.16752116	          0.13198750	          0.05000525	          0.06894583	          0.05001022	          0.05000320	          0.08322750	          0.13089024	          0.05000487	          0.05000347	          0.25548179	          0.09741549	          0.16391519	          0.06962442	          0.24421790	          0.26311020	          0.20122823	          0.05900263	          0.05900273	          0.05900261	          0.05871357	          0.05900290	          0.05900296	          0.48069286	          0.28243964	          0.15407372	          0.38896850	          0.59011840	          0.25334519	          0.05000008	          0.09695639	          0.09472032	          0.24785721	          0.06333557	          0.05491650	          0.19224605	          0.11475042	          0.06375359	          0.06632125	          0.05000088	          0.05000139	          0.05000026	          0.05445288	          0.14405222	          0.33904750	          0.10011632	          0.05901568	          0.13246294	          0.15944044	          0.06126204	          0.05000207	          0.05005865	          0.05898446	          0.05900026	          0.21750383	          0.42576885	          0.05004001	          0.05000598	          0.05000056	          0.16919965	          0.11440857	          0.11441170	          0.08399690	          0.12655626	          0.17917914	          0.15842568	          0.13740399	          0.14419426	          0.17801915	          0.05490704	          0.07594136	          0.14269476	          0.05000138	          0.17286618	          0.05001903	          0.05000085	          0.06962248	          0.06192899	
          1.65288353	         -2.83432474	         -1.05631229	         -5.36762394	          2.07717022	          0.86626102	          0.00190278	         25.44502343	          0.00268246	         -0.72784602	        -16.10468861	          0.89575216	          5.65228680	         -9.96976966	        -14.63978413	          4.56890853	        -10.50262341	          2.74541722	         12.58049353	         -0.04907189	          2.58985025	         -0.16582286	         26.24625148	          1.26837502	          2.38498957	          1.78015889	        -12.97320167	        -13.50346014	         13.02479271	          2.94744296	        -13.60006550	         13.69017456	         17.05271277	         29.58423494	         86.51662706	         86.51662706	          0.32738466	          0.32164141	          0.37614336	          0.17767274	          0.17054628	          0.23189587	          0.06943454	          0.09318593	          0.07199734	          0.08216246	          0.05001799	          0.05900359	          0.07284956	          0.15496631	          0.19070893	          0.16718475	          0.05000108	          0.05842888	          0.08216590	          0.21654615	          0.17439175	          0.17643205	          0.05000085	          0.05000074	          0.21650068	          0.08255326	          0.21182784	          0.05900116	          0.20695532	          0.22296509	          0.17052499	          0.05000016	          0.05000030	          0.05000003	          0.05000003	          0.05000070	          0.05000059	          0.61866863	          0.32028210	          0.16186342	          0.64479232	          0.65534812	          0.41991982	          0.05000243	          0.08216281	          0.08026791	          0.21003954	          0.05367193	          0.05000012	          0.16291724	          0.09724210	          0.05402637	          0.08994376	          0.05001813	          0.05000509	          0.05002275	          0.05902003	          0.17624577	          0.29130798	          0.08484305	          0.05001739	          0.11225305	          0.13511343	          0.09347212	          0.05001041	          0.05000251	          0.05000163	          0.05000187	          0.18431727	          0.38067412	          0.05000021	          0.05000124	          0.05000115	          0.14338316	          0.09695220	          0.09695483	          0.07118073	          0.10724633	          0.15184010	          0.13425310	          0.11643918	          0.12219393	          0.15085754	          0.08447289	          0.09697118	          0.12092286	          0.11381410	          0.21382161	          0.10227213	          0.08575402	          0.05899950	          0.05247994	
